<?xml version="1.0" encoding="UTF-8"?>
<svg width="323px" height="127px" viewBox="0 0 323 127" version="1.1" xmlns="http://www.w3.org/2000/svg" xmlns:xlink="http://www.w3.org/1999/xlink">
    <!-- Generator: Sketch 50.2 (55047) - http://www.bohemiancoding.com/sketch -->
    <title>ROMAN TIHIY</title>
    <desc>Created with Sketch.</desc>
    <defs></defs>
    <g id="Desktop" stroke="none" stroke-width="1" fill="none" fill-rule="evenodd" fill-opacity="0.87">
        <g id="Home" transform="translate(-327.000000, -392.000000)" fill="#FFFFFF">
            <path d="M342.085938,402.774414 L342.085938,416.50293 L354.185059,416.50293 C356.588716,416.50293 358.391433,416.225589 359.593262,415.670898 C361.719574,414.70019 362.782715,412.781915 362.782715,409.916016 C362.782715,406.818995 361.754242,404.738938 359.697266,403.675781 C358.541661,403.074867 356.80828,402.774414 354.49707,402.774414 L342.085938,402.774414 Z M356.71582,393.899414 C360.298195,393.96875 363.054271,394.407874 364.984131,395.216797 C366.913991,396.02572 368.549147,397.215975 369.889648,398.787598 C370.999029,400.081875 371.877275,401.514803 372.524414,403.086426 C373.171553,404.658048 373.495117,406.449209 373.495117,408.459961 C373.495117,410.886731 372.882656,413.273019 371.657715,415.618896 C370.432774,417.964774 368.410496,419.623042 365.59082,420.59375 C367.948254,421.541346 369.618078,422.887605 370.600342,424.632568 C371.582606,426.377532 372.07373,429.04116 372.07373,432.623535 L372.07373,436.055664 C372.07373,438.389986 372.166177,439.97314 372.351074,440.805176 C372.628419,442.122565 373.275548,443.093259 374.29248,443.717285 L374.29248,445 L362.540039,445 C362.21647,443.867507 361.985352,442.954593 361.84668,442.26123 C361.569335,440.828281 361.419108,439.360685 361.395996,437.858398 L361.32666,433.108887 C361.280436,429.850081 360.685308,427.677577 359.54126,426.591309 C358.397211,425.50504 356.253596,424.961914 353.110352,424.961914 L342.085938,424.961914 L342.085938,445 L331.650879,445 L331.650879,393.899414 L356.71582,393.899414 Z M405.285645,437.373047 C409.515158,437.373047 412.872139,435.813004 415.356689,432.692871 C417.84124,429.572738 419.083496,425.135283 419.083496,419.380371 C419.083496,413.648572 417.84124,409.216894 415.356689,406.085205 C412.872139,402.953516 409.515158,401.387695 405.285645,401.387695 C401.056131,401.387695 397.681816,402.947738 395.162598,406.067871 C392.643379,409.188004 391.383789,413.62546 391.383789,419.380371 C391.383789,425.135283 392.643379,429.572738 395.162598,432.692871 C397.681816,435.813004 401.056131,437.373047 405.285645,437.373047 Z M429.76123,419.380371 C429.76123,428.555873 427.184271,435.581844 422.030273,440.458496 C418.170554,444.433776 412.589066,446.421387 405.285645,446.421387 C397.982223,446.421387 392.400735,444.433776 388.541016,440.458496 C383.363906,435.581844 380.775391,428.555873 380.775391,419.380371 C380.775391,410.019973 383.363906,402.994001 388.541016,398.302246 C392.400735,394.326966 397.982223,392.339355 405.285645,392.339355 C412.589066,392.339355 418.170554,394.326966 422.030273,398.302246 C427.184271,402.994001 429.76123,410.019973 429.76123,419.380371 Z M471.778809,393.899414 L487.136719,393.899414 L487.136719,445 L477.187012,445 L477.187012,410.436035 C477.187012,409.442215 477.198568,408.049732 477.22168,406.258545 C477.244792,404.467358 477.256348,403.086431 477.256348,402.115723 L467.583984,445 L457.218262,445 L447.615234,402.115723 C447.615234,403.086431 447.62679,404.467358 447.649902,406.258545 C447.673014,408.049732 447.68457,409.442215 447.68457,410.436035 L447.68457,445 L437.734863,445 L437.734863,393.899414 L453.266113,393.899414 L462.557129,434.07959 L471.778809,393.899414 Z M511.022949,425.689941 L523.98877,425.689941 L517.609863,405.58252 L511.022949,425.689941 Z M511.681641,393.899414 L523.746094,393.899414 L541.842773,445 L530.263672,445 L526.970215,434.495605 L508.145508,434.495605 L504.609375,445 L493.446289,445 L511.681641,393.899414 Z M548.152344,393.899414 L559.350098,393.899414 L579.700195,429.572754 L579.700195,393.899414 L649.649902,393.899414 L649.649902,445 L578.972168,445 L558.102051,408.702637 L558.102051,445 L548.152344,445 L548.152344,393.899414 Z M368.537598,467.899414 L368.537598,476.947754 L353.249023,476.947754 L353.249023,519 L342.501953,519 L342.501953,476.947754 L327.144043,476.947754 L327.144043,467.899414 L368.537598,467.899414 Z M384.554199,519 L373.945801,519 L373.945801,467.899414 L384.554199,467.899414 L384.554199,519 Z M394.43457,519 L394.43457,467.899414 L405.008301,467.899414 L405.008301,487.382812 L424.977051,487.382812 L424.977051,467.899414 L435.585449,467.899414 L435.585449,519 L424.977051,519 L424.977051,496.188477 L405.008301,496.188477 L405.008301,519 L394.43457,519 Z M455.554199,519 L444.945801,519 L444.945801,467.899414 L455.554199,467.899414 L455.554199,519 Z M494.659668,467.899414 L546.758789,467.899414 L529.66748,499.793945 L529.66748,519 L478.989746,519 L478.989746,499.793945 L461.309082,467.899414 L473.893555,467.899414 L484.501953,490.15625 L494.659668,467.899414 Z" id="ROMAN-TIHIY"></path>
        </g>
    </g>
</svg>